<svg xmlns="http://www.w3.org/2000/svg" width="51.5" height="68.667" viewBox="0 0 51.5 68.667">
  <g id="Group_72" data-name="Group 72" transform="translate(-934 -394)">
    <path id="Icon_awesome-file" data-name="Icon awesome-file" d="M30.042,18.24V0H3.219A3.211,3.211,0,0,0,0,3.219V65.448a3.211,3.211,0,0,0,3.219,3.219H48.281A3.211,3.211,0,0,0,51.5,65.448V21.458H33.26A3.228,3.228,0,0,1,30.042,18.24ZM51.5,16.349v.818H34.333V0h.818a3.216,3.216,0,0,1,2.28.939l13.13,13.143A3.208,3.208,0,0,1,51.5,16.349Z" transform="translate(934 394)" fill="#995700"/>
    <path id="Icon_awesome-check" data-name="Icon awesome-check" d="M8.491,22.854.366,14.729a1.25,1.25,0,0,1,0-1.768l1.768-1.768a1.25,1.25,0,0,1,1.768,0l5.473,5.473L21.1,4.943a1.25,1.25,0,0,1,1.768,0l1.768,1.768a1.25,1.25,0,0,1,0,1.768L10.259,22.854A1.25,1.25,0,0,1,8.491,22.854Z" transform="translate(947 414.423)" fill="#fff"/>
  </g>
</svg>
